<svg fill="none" viewBox="0 0 32 32" xmlns="http://www.w3.org/2000/svg">
<rect fill="#049BFF" height="32" rx="6.66667" width="32"></rect>
<path d="M26.2565 13.4733C24.9596 11.5496 22.7739 10.4375 20.5007 10.5878C19.5244 8.76936 17.7176 7.56708 15.6047 7.43182C14.133 7.34165 12.6467 7.86765 11.4956 8.88959C10.7087 9.59593 10.1404 10.4075 9.7907 11.3242C9.5867 11.8652 9.12041 12.2109 8.62498 12.2109H5.20103V15.2166H8.62498C10.3298 15.2166 11.8598 14.1195 12.501 12.4213C12.6758 11.9554 12.9673 11.5496 13.4044 11.1589C13.9727 10.6479 14.7159 10.3774 15.4153 10.4225C16.4644 10.4976 17.2076 10.9936 17.6739 11.6098C18.1693 12.1808 18.4462 13.0675 18.6064 13.9542C19.539 13.6837 20.559 13.4583 21.5353 13.6236C22.3367 13.7588 23.0799 14.1947 23.619 14.8409C23.7065 14.9461 23.7939 15.0513 23.8667 15.1715C24.5662 16.2085 24.6973 17.4859 24.231 18.7483C23.8085 19.9206 22.2493 20.9876 20.9524 20.9876H10.8107C9.42641 20.9876 8.28983 19.9206 8.11498 18.553H5.20068C5.39011 21.5887 7.82355 23.9933 10.8107 23.9933H20.967C23.4733 23.9933 26.1107 22.1598 26.9705 19.8154C27.7719 17.6212 27.5096 15.3068 26.271 13.4583L26.2565 13.4733Z" fill="white"></path>
</svg>